<?xml version="1.0" standalone="no"?>
<!DOCTYPE svg PUBLIC "-//W3C//DTD SVG 20010904//EN"
 "http://www.w3.org/TR/2001/REC-SVG-20010904/DTD/svg10.dtd">
<svg version="1.0" xmlns="http://www.w3.org/2000/svg"
 width="448.000000pt" height="92.000000pt" viewBox="0 0 448.000000 92.000000"
 preserveAspectRatio="xMidYMid meet">

<g transform="translate(0.000000,92.000000) scale(0.100000,-0.100000)"
fill="#000000" stroke="none">
<path d="M2127 673 c-4 -3 -7 -38 -7 -76 0 -60 -2 -68 -15 -57 -24 20 -87 30
-125 20 -67 -18 -117 -97 -107 -171 20 -148 213 -181 283 -47 10 20 14 68 14
183 0 144 -1 155 -18 155 -10 0 -22 -3 -25 -7z m-49 -180 c30 -18 45 -59 38
-101 -18 -118 -178 -114 -192 5 -6 49 12 84 56 105 36 18 58 16 98 -9z"/>
<path d="M114 640 c-25 -12 -49 -35 -63 -60 -20 -36 -21 -50 -19 -177 3 -130
4 -138 23 -138 18 0 20 8 23 68 l3 67 104 0 104 0 3 -67 c3 -60 5 -68 23 -68
19 0 20 7 20 152 0 138 -2 154 -21 180 -43 58 -132 78 -200 43z m126 -45 c37
-19 50 -43 50 -94 l0 -41 -105 0 -105 0 0 38 c1 90 80 138 160 97z"/>
<path d="M3633 640 c-56 -34 -64 -62 -61 -228 3 -139 4 -147 23 -147 19 0 20
8 23 152 2 150 3 152 29 172 36 29 84 27 114 -5 23 -24 24 -33 27 -175 4 -139
5 -149 23 -149 18 0 19 9 19 140 0 180 13 210 90 210 15 0 38 -9 51 -19 23
-18 24 -26 29 -173 5 -145 6 -153 25 -153 19 0 20 8 23 142 2 108 -1 151 -12
177 -31 74 -135 100 -195 50 l-31 -26 -31 26 c-38 32 -99 35 -146 6z"/>
<path d="M4223 641 c-142 -65 -148 -284 -9 -362 46 -26 125 -30 167 -9 33 17
89 71 89 86 0 27 -34 24 -65 -6 -64 -62 -146 -60 -204 5 -87 100 -24 255 104
255 44 0 86 -21 114 -55 17 -22 23 -25 41 -15 23 12 17 30 -22 67 -56 53 -142
66 -215 34z"/>
<path d="M3197 643 c-11 -10 -8 -244 3 -284 26 -95 147 -134 239 -78 51 31 61
69 61 229 l0 140 -25 0 -25 0 0 -138 c0 -153 -7 -173 -65 -198 -39 -16 -93 -4
-121 27 -16 18 -19 40 -22 165 -3 130 -5 144 -21 144 -10 0 -21 -3 -24 -7z"/>
<path d="M1217 614 c-4 -4 -7 -15 -7 -25 0 -10 -9 -23 -20 -29 -11 -6 -20 -19
-20 -29 0 -10 9 -21 20 -24 18 -5 20 -14 20 -97 0 -88 1 -93 30 -121 22 -22
37 -29 57 -27 40 4 39 42 0 46 -36 4 -47 33 -47 127 l0 74 38 3 c29 2 37 7 37
23 0 15 -8 21 -35 25 -26 4 -36 11 -40 29 -6 25 -21 37 -33 25z"/>
<path d="M1445 556 c-89 -39 -119 -145 -66 -232 38 -62 142 -83 207 -43 38 23
41 31 19 49 -11 9 -19 8 -37 -4 -30 -21 -97 -20 -124 2 -26 20 -46 57 -37 66
3 3 60 6 125 6 115 0 118 1 118 22 0 46 -39 106 -84 127 -49 24 -78 26 -121 7z
m114 -62 c17 -14 31 -30 31 -35 0 -5 -40 -9 -90 -9 -49 0 -90 4 -90 9 0 19 62
61 90 61 16 0 42 -11 59 -26z"/>
<path d="M447 539 c-37 -28 -49 -79 -45 -184 3 -85 4 -90 26 -93 22 -3 22 -2
22 103 0 99 2 107 25 130 29 30 55 32 86 6 22 -17 24 -29 29 -128 5 -100 7
-108 25 -108 19 0 20 8 25 112 3 70 10 117 18 125 16 16 76 15 96 -1 13 -11
16 -34 16 -115 0 -106 8 -133 34 -123 13 5 16 25 16 121 0 112 -1 114 -29 145
-25 26 -36 31 -78 31 -29 0 -58 -7 -72 -16 -22 -16 -25 -16 -51 0 -40 23 -111
21 -143 -5z"/>
<path d="M945 550 c-31 -12 -46 -35 -47 -69 -1 -44 26 -68 91 -81 82 -16 101
-26 101 -53 0 -27 -34 -47 -82 -47 -22 0 -40 10 -65 36 -37 40 -70 41 -58 2
12 -39 46 -66 95 -77 113 -24 200 58 145 136 -15 21 -34 29 -132 53 -51 13
-60 44 -17 60 42 16 64 12 96 -20 34 -34 65 -36 60 -5 -2 11 -16 32 -33 48
-24 22 -38 27 -82 26 -28 0 -61 -4 -72 -9z"/>
<path d="M1704 545 c-3 -6 -3 -72 -2 -146 3 -126 4 -134 23 -134 18 0 20 8 25
106 6 120 13 136 71 145 29 5 39 11 39 25 0 16 -8 18 -76 17 -45 -1 -78 -6
-80 -13z"/>
<path d="M2279 537 c-87 -58 -91 -181 -10 -250 26 -22 43 -27 84 -27 29 0 65
7 81 15 35 18 36 18 36 0 0 -9 9 -15 25 -15 25 0 25 0 25 93 0 107 -16 149
-69 184 -24 17 -49 23 -86 23 -37 0 -62 -6 -86 -23z m148 -43 c12 -7 27 -31
34 -53 16 -55 -11 -110 -63 -130 -34 -12 -41 -12 -75 6 -53 27 -72 81 -50 136
26 62 94 80 154 41z"/>
<path d="M2604 526 l-34 -34 0 -117 c0 -115 0 -116 23 -113 21 3 22 8 27 118
5 110 6 115 30 127 26 13 67 9 85 -8 6 -6 12 -60 15 -122 5 -104 6 -112 25
-112 18 0 20 8 25 108 5 99 7 111 29 128 13 10 31 19 41 19 10 0 28 -9 41 -19
22 -17 24 -29 29 -128 5 -100 7 -108 25 -108 19 0 20 7 20 118 l0 119 -33 29
c-26 23 -41 29 -80 29 -27 0 -57 -7 -70 -15 -19 -14 -24 -14 -51 0 -17 8 -49
15 -72 15 -33 0 -47 -6 -75 -34z"/>
</g>
</svg>
