<?xml version="1.0" standalone="no"?>
<!DOCTYPE svg PUBLIC "-//W3C//DTD SVG 20010904//EN"
 "http://www.w3.org/TR/2001/REC-SVG-20010904/DTD/svg10.dtd">
<svg version="1.0" xmlns="http://www.w3.org/2000/svg"
 width="280.000000pt" height="280.000000pt" viewBox="0 0 280.000000 280.000000"
 preserveAspectRatio="xMidYMid meet">

<g transform="translate(0.000000,280.000000) scale(0.100000,-0.100000)"
fill="#000000" stroke="none">
<path d="M1313 2719 c-70 -58 -170 -173 -220 -252 l-25 -39 89 -92 c99 -101
155 -173 207 -266 l34 -63 17 34 c18 34 85 140 95 149 3 3 18 23 34 45 16 22
64 74 107 116 l78 76 -46 69 c-72 107 -253 285 -290 284 -4 0 -40 -27 -80 -61z"/>
<path d="M883 1723 c4 -588 5 -633 24 -704 24 -92 71 -193 110 -234 46 -50
129 -106 211 -141 42 -19 83 -34 90 -34 20 0 17 881 -4 1014 -29 181 -93 340
-195 486 -53 77 -179 209 -218 230 l-22 11 4 -628z"/>
<path d="M1807 2258 c-106 -106 -107 -108 -169 -208 -79 -127 -114 -216 -148
-379 -18 -85 -20 -134 -20 -577 l0 -484 28 6 c15 4 58 22 96 41 186 92 245
166 298 378 19 75 21 120 25 698 3 446 2 617 -6 617 -7 0 -53 -42 -104 -92z"/>
</g>
</svg>
