<?xml version="1.0" standalone="no"?>
<!DOCTYPE svg PUBLIC "-//W3C//DTD SVG 20010904//EN"
 "http://www.w3.org/TR/2001/REC-SVG-20010904/DTD/svg10.dtd">
<svg version="1.0" xmlns="http://www.w3.org/2000/svg"
 width="551.000000pt" height="91.000000pt" viewBox="0 0 551.000000 91.000000"
 preserveAspectRatio="xMidYMid meet">

<g transform="translate(0.000000,91.000000) scale(0.100000,-0.100000)"
fill="#000000" stroke="none">
<path d="M343 884 c-17 -13 -41 -39 -52 -58 l-21 -33 36 -39 c20 -22 42 -52
51 -68 l15 -28 34 50 c18 28 43 57 55 66 l21 15 -20 28 c-11 15 -35 42 -54 60
l-33 32 -32 -25z"/>
<path d="M200 587 c0 -199 11 -278 46 -325 20 -25 79 -62 100 -62 9 0 3 308
-6 348 -6 24 -19 62 -31 86 -22 47 -85 126 -100 126 -5 0 -9 -74 -9 -173z"/>
<path d="M498 722 c-81 -89 -98 -152 -98 -359 0 -90 2 -163 5 -163 22 0 89 47
105 73 27 45 31 87 28 301 l-3 189 -37 -41z"/>
<path d="M3150 595 l0 -76 -32 17 c-45 24 -112 22 -146 -3 -96 -71 -96 -195
-2 -265 56 -41 156 -19 204 45 19 26 21 41 21 190 0 160 0 162 -22 165 -22 3
-23 0 -23 -73z m-43 -111 c29 -18 48 -83 36 -120 -5 -16 -25 -39 -44 -52 -43
-30 -84 -24 -121 18 -50 55 -32 136 36 166 33 14 57 11 93 -12z"/>
<path d="M1145 637 c-17 -8 -43 -29 -58 -46 -27 -32 -27 -34 -27 -187 0 -147
1 -154 20 -154 18 0 20 7 20 70 l0 70 110 0 110 0 0 -70 c0 -63 2 -70 20 -70
19 0 20 7 20 148 0 160 -9 191 -63 227 -35 22 -115 28 -152 12z m128 -58 c29
-22 52 -88 42 -120 -6 -18 -14 -19 -108 -17 l-102 3 2 50 c2 41 8 55 33 78 38
34 95 37 133 6z"/>
<path d="M4663 630 c-55 -33 -63 -61 -63 -230 0 -151 0 -151 23 -148 22 3 22
6 25 153 2 137 4 151 24 172 30 32 87 31 118 -2 22 -23 23 -31 22 -157 -2
-150 2 -168 29 -168 18 0 19 8 19 140 0 180 13 210 90 210 15 0 38 -9 51 -19
23 -18 24 -26 29 -173 5 -145 6 -153 25 -153 19 0 20 8 23 142 2 108 -1 151
-12 177 -31 73 -135 100 -194 51 l-30 -25 -38 25 c-45 30 -97 32 -141 5z"/>
<path d="M5249 627 c-24 -13 -57 -43 -74 -66 -26 -37 -30 -51 -30 -109 0 -52
6 -76 24 -109 66 -115 209 -133 304 -38 31 31 34 50 11 59 -10 4 -30 -6 -55
-28 -51 -47 -95 -54 -153 -26 -76 36 -107 133 -68 210 47 94 175 107 241 25
17 -23 23 -25 41 -15 l21 11 -24 32 c-31 42 -101 77 -153 77 -23 0 -59 -10
-85 -23z"/>
<path d="M4220 503 c0 -156 14 -203 72 -238 44 -26 123 -26 167 0 60 36 71 71
71 232 l0 143 -25 0 -25 0 0 -139 c0 -124 -2 -141 -20 -164 -30 -38 -80 -52
-123 -34 -61 26 -67 45 -67 199 l0 138 -25 0 -25 0 0 -137z"/>
<path d="M2237 604 c-4 -4 -7 -17 -7 -30 0 -13 -8 -24 -20 -27 -11 -3 -20 -13
-20 -22 0 -9 9 -19 20 -22 18 -5 20 -14 20 -90 0 -117 27 -163 95 -163 22 0
26 4 23 22 -2 13 -11 24 -23 26 -40 8 -45 21 -45 113 l0 89 36 0 c31 0 35 3
32 23 -2 17 -11 23 -35 25 -26 3 -32 8 -35 30 -3 26 -26 40 -41 26z"/>
<path d="M2461 538 c-98 -51 -110 -179 -26 -258 23 -22 36 -25 95 -25 53 0 73
4 89 19 12 11 21 25 21 31 0 21 -32 27 -50 10 -9 -8 -35 -15 -59 -15 -34 0
-49 6 -72 29 -54 54 -44 61 91 61 138 0 143 3 112 73 -37 84 -122 116 -201 75z
m125 -49 c8 -7 20 -21 25 -31 9 -17 4 -18 -86 -18 -92 0 -95 1 -85 20 24 45
107 62 146 29z"/>
<path d="M1478 533 c-40 -25 -48 -54 -48 -174 0 -109 0 -110 23 -107 21 3 22
8 27 118 5 110 6 115 30 127 26 13 67 9 85 -8 6 -6 12 -60 15 -122 5 -107 6
-112 28 -115 22 -3 22 -2 22 107 0 106 1 110 26 130 35 27 59 26 89 -4 23 -23
25 -31 25 -130 0 -105 0 -106 23 -103 21 3 22 6 22 122 l-1 118 -32 29 c-26
23 -42 29 -80 29 -28 0 -57 -7 -71 -16 -22 -16 -25 -16 -51 0 -36 21 -97 20
-132 -1z"/>
<path d="M1951 524 c-32 -27 -39 -59 -21 -93 11 -21 47 -37 105 -46 47 -8 85
-30 85 -50 0 -8 -11 -22 -25 -31 -39 -25 -103 -13 -135 25 -29 36 -50 40 -50
11 0 -55 59 -94 141 -94 79 0 134 54 113 112 -11 30 -67 72 -98 72 -48 0 -96
21 -96 41 0 46 107 49 136 4 16 -24 54 -35 54 -15 0 24 -26 63 -51 76 -16 8
-50 14 -78 14 -39 0 -56 -6 -80 -26z"/>
<path d="M2730 399 c0 -150 0 -150 23 -147 21 3 22 8 27 110 6 119 11 131 70
145 20 5 36 16 38 26 3 13 -4 17 -33 17 -20 0 -45 -5 -55 -10 -13 -7 -21 -7
-25 0 -3 5 -15 10 -26 10 -18 0 -19 -8 -19 -151z"/>
<path d="M3309 527 c-89 -59 -92 -203 -4 -257 43 -27 119 -27 163 0 32 20 32
20 32 0 0 -15 7 -20 25 -20 25 0 25 1 25 88 0 105 -21 158 -72 190 -49 30
-124 30 -169 -1z m119 -28 c40 -14 62 -49 62 -99 0 -55 -14 -79 -57 -96 -67
-28 -131 10 -139 83 -6 49 12 83 56 105 41 21 39 21 78 7z"/>
<path d="M3651 536 c-42 -23 -50 -53 -51 -173 0 -105 1 -113 19 -113 18 0 20
10 23 110 2 87 6 113 20 127 21 20 82 23 101 5 7 -8 14 -55 17 -125 5 -104 6
-112 25 -112 18 0 20 8 25 109 5 105 6 110 32 129 23 17 33 19 55 11 42 -14
53 -47 53 -157 0 -96 0 -98 23 -95 20 3 22 9 25 68 8 167 -23 230 -116 230
-33 0 -57 -6 -73 -19 -24 -19 -25 -19 -48 0 -27 22 -94 25 -130 5z"/>
</g>
</svg>
